Inside Planet Earth *2009*[HDTV][1080i]

General information:
Country: UK
Release: 7 June 2009
Genre: Documentary 
Director: Martin Williams
Screenplay: Billie Pink
Original Music: Philip Chambon
Cinematography by: Paul Williams 
Duration: 1h 27mn
Language: English, Polish
No Subtitles
Rating: 7.6/10 - 76 votes  


Cast:
Planet Earth

Plot:
It’s the ultimate voyage our world has to offer: a journey from the temperate surface of our world to the fiery core of the Earth. With the aid of stunning visual effects, the unexplored interior of the Earth is split wide open, giving us an unbelievable view. From glowing seams of pure iron ore to sparkling diamond caverns to the magnetic field that keeps us safe from the lethal radiation of space… for now, this is the fantastical world we live in and never see.

Specifications:
General
Format                           : Matroska
Format version                   : Version 2
Overall bit rate                 : 11.8 Mbps

Video
Format                           : AVC
Format/Info                      : Advanced Video Codec
Format profile                   : High@L4.0
Format settings, CABAC           : Yes
Format settings, ReFrames        : 4 frames
Format settings, GOP             : M=4, N=23
Muxing mode                      : Header stripping
Codec ID                         : V_MPEG4/ISO/AVC
Bit rate mode                    : Variable
Bit rate                         : 11.4 Mbps
Maximum bit rate                 : 15.0 Mbps
Width                            : 1 920 pixels
Height                           : 1 080 pixels
Display aspect ratio             : 16:9
Frame rate                       : 25.000 fps

Audio 1
Format                           : AC-3
Format/Info                      : Audio Coding 3
Mode extension                   : CM (complete main)
Muxing mode                      : Header stripping
Codec ID                         : A_AC3
Bit rate mode                    : Constant
Bit rate                         : 224 Kbps
Channel(s)                       : 2 channels
Channel positions                : Front: L R
Sampling rate                    : 48.0 KHz
Bit depth                        : 16 bits
Compression mode                 : Lossy
Stream size                      : 140 MiB (2%)
Title                            : English
Language                         : English

Audio 2
Format                           : AC-3
Format/Info                      : Audio Coding 3
Mode extension                   : CM (complete main)
Muxing mode                      : Header stripping
Codec ID                         : A_AC3
Bit rate mode                    : Constant
Bit rate                         : 224 Kbps
Channel(s)                       : 2 channels
Channel positions                : Front: L R
Sampling rate                    : 48.0 KHz
Bit depth                        : 16 bits
Compression mode                 : Lossy
Stream size                      : 140 MiB (2%)
Title                            : Polish
Language                         : Polish
